{
  "accessors": [
    {
      "bufferView": 2,
      "componentType": 5126,
      "count": 19715,
      "max": [
        5.678391456604004,
        15.667045593261719,
        1.133705496788025
      ],
      "min": [
        -5.724977970123291,
        -6.735208511352539,
        -3.027705669403076
      ],
      "type": "VEC3"
    },
    {
      "bufferView": 2,
      "byteOffset": 236580,
      "componentType": 5126,
      "count": 19715,
      "max": [
        1.0,
        0.9999856948852539,
        0.9999970197677612
      ],
      "min": [
        -1.0,
        -0.9999849796295166,
        -0.9999970197677612
      ],
      "type": "VEC3"
    },
    {
      "bufferView": 3,
      "componentType": 5126,
      "count": 19715,
      "max": [
        1.0,
        1.0,
        0.999999463558197,
        1.0
      ],
      "min": [
        -1.0,
        -1.0,
        -1.0,
        -1.0
      ],
      "type": "VEC4"
    },
    {
      "bufferView": 1,
      "componentType": 5126,
      "count": 19715,
      "max": [
        0.98974609375,
        0.998046875
      ],
      "min": [
        0.001953125,
        0.0029296875
      ],
      "type": "VEC2"
    },
    {
      "bufferView": 1,
      "byteOffset": 157720,
      "componentType": 5126,
      "count": 19715,
      "max": [
        0.98974609375,
        0.998046875
      ],
      "min": [
        0.001953125,
        0.0029296875
      ],
      "type": "VEC2"
    },
    {
      "bufferView": 1,
      "byteOffset": 315440,
      "componentType": 5126,
      "count": 19715,
      "max": [
        0.98974609375,
        0.998046875
      ],
      "min": [
        0.001953125,
        0.0029296875
      ],
      "type": "VEC2"
    },
    {
      "bufferView": 1,
      "byteOffset": 473160,
      "componentType": 5126,
      "count": 19715,
      "max": [
        0.98974609375,
        0.998046875
      ],
      "min": [
        0.001953125,
        0.0029296875
      ],
      "type": "VEC2"
    },
    {
      "bufferView": 1,
      "byteOffset": 630880,
      "componentType": 5126,
      "count": 19715,
      "max": [
        0.98974609375,
        0.998046875
      ],
      "min": [
        0.001953125,
        0.0029296875
      ],
      "type": "VEC2"
    },
    {
      "bufferView": 0,
      "componentType": 5125,
      "count": 58608,
      "type": "SCALAR"
    },
    {
      "bufferView": 2,
      "byteOffset": 473160,
      "componentType": 5126,
      "count": 48090,
      "max": [
        25.99359703063965,
        18.466068267822266,
        4.422797679901123
      ],
      "min": [
        -26.02394676208496,
        -34.99584197998047,
        -12.554365158081055
      ],
      "type": "VEC3"
    },
    {
      "bufferView": 2,
      "byteOffset": 1050240,
      "componentType": 5126,
      "count": 48090,
      "max": [
        1.0,
        0.9999992847442627,
        0.9999942779541016
      ],
      "min": [
        -1.0,
        -0.999998927116394,
        -0.9999898672103882
      ],
      "type": "VEC3"
    },
    {
      "bufferView": 3,
      "byteOffset": 315440,
      "componentType": 5126,
      "count": 48090,
      "max": [
        1.0,
        1.0,
        1.0,
        1.0
      ],
      "min": [
        -1.0,
        -1.0,
        -1.0,
        -1.0
      ],
      "type": "VEC4"
    },
    {
      "bufferView": 1,
      "byteOffset": 788600,
      "componentType": 5126,
      "count": 48090,
      "max": [
        0.99169921875,
        0.999476432800293
      ],
      "min": [
        0.001953125,
        0.00244140625
      ],
      "type": "VEC2"
    },
    {
      "bufferView": 1,
      "byteOffset": 1173320,
      "componentType": 5126,
      "count": 48090,
      "max": [
        0.99169921875,
        0.999476432800293
      ],
      "min": [
        0.001953125,
        0.00244140625
      ],
      "type": "VEC2"
    },
    {
      "bufferView": 1,
      "byteOffset": 1558040,
      "componentType": 5126,
      "count": 48090,
      "max": [
        0.99169921875,
        0.999476432800293
      ],
      "min": [
        0.001953125,
        0.00244140625
      ],
      "type": "VEC2"
    },
    {
      "bufferView": 1,
      "byteOffset": 1942760,
      "componentType": 5126,
      "count": 48090,
      "max": [
        0.99169921875,
        0.999476432800293
      ],
      "min": [
        0.001953125,
        0.00244140625
      ],
      "type": "VEC2"
    },
    {
      "bufferView": 1,
      "byteOffset": 2327480,
      "componentType": 5126,
      "count": 48090,
      "max": [
        0.99169921875,
        0.999476432800293
      ],
      "min": [
        0.001953125,
        0.00244140625
      ],
      "type": "VEC2"
    },
    {
      "bufferView": 0,
      "byteOffset": 234432,
      "componentType": 5125,
      "count": 133680,
      "type": "SCALAR"
    },
    {
      "bufferView": 2,
      "byteOffset": 1627320,
      "componentType": 5126,
      "count": 299,
      "max": [
        2.0819222927093506,
        17.30951499938965,
        1.003882884979248
      ],
      "min": [
        -2.1122725009918213,
        -27.343935012817383,
        -1.2452850341796875
      ],
      "type": "VEC3"
    },
    {
      "bufferView": 2,
      "byteOffset": 1630908,
      "componentType": 5126,
      "count": 299,
      "max": [
        0.9794836640357971,
        0.8734015226364136,
        0.9990490674972534
      ],
      "min": [
        -0.9795024394989014,
        -0.9973025918006897,
        -0.7323917150497437
      ],
      "type": "VEC3"
    },
    {
      "bufferView": 3,
      "byteOffset": 1084880,
      "componentType": 5126,
      "count": 299,
      "max": [
        0.928957998752594,
        0.6702658534049988,
        0.8863657116889954,
        1.0
      ],
      "min": [
        -0.8537638187408447,
        -0.999945342540741,
        -0.9958108067512512,
        -1.0
      ],
      "type": "VEC4"
    },
    {
      "bufferView": 1,
      "byteOffset": 2712200,
      "componentType": 5126,
      "count": 299,
      "max": [
        0.98828125,
        0.9843978881835938
      ],
      "min": [
        0.26025390625,
        0.0048828125
      ],
      "type": "VEC2"
    },
    {
      "bufferView": 1,
      "byteOffset": 2714592,
      "componentType": 5126,
      "count": 299,
      "max": [
        0.98828125,
        0.9843978881835938
      ],
      "min": [
        0.26025390625,
        0.0048828125
      ],
      "type": "VEC2"
    },
    {
      "bufferView": 1,
      "byteOffset": 2716984,
      "componentType": 5126,
      "count": 299,
      "max": [
        0.98828125,
        0.9843978881835938
      ],
      "min": [
        0.26025390625,
        0.0048828125
      ],
      "type": "VEC2"
    },
    {
      "bufferView": 1,
      "byteOffset": 2719376,
      "componentType": 5126,
      "count": 299,
      "max": [
        0.98828125,
        0.9843978881835938
      ],
      "min": [
        0.26025390625,
        0.0048828125
      ],
      "type": "VEC2"
    },
    {
      "bufferView": 1,
      "byteOffset": 2721768,
      "componentType": 5126,
      "count": 299,
      "max": [
        0.98828125,
        0.9843978881835938
      ],
      "min": [
        0.26025390625,
        0.0048828125
      ],
      "type": "VEC2"
    },
    {
      "bufferView": 0,
      "byteOffset": 769152,
      "componentType": 5125,
      "count": 1392,
      "type": "SCALAR"
    }
  ],
  "asset": {
    "extras": {
      "author": "xlisov (https://sketchfab.com/xlisov74)",
      "license": "CC-BY-NC-4.0 (http://creativecommons.org/licenses/by-nc/4.0/)",
      "source": "https://sketchfab.com/3d-models/ba-c-17-globemaster-b5e21aade6a142c1a192900d52aac98f",
      "title": "[BA] C-17 Globemaster"
    },
    "generator": "Sketchfab-16.74.0",
    "version": "2.0"
  },
  "bufferViews": [
    {
      "buffer": 0,
      "byteLength": 774720,
      "name": "floatBufferViews",
      "target": 34963
    },
    {
      "buffer": 0,
      "byteLength": 2724160,
      "byteOffset": 774720,
      "byteStride": 8,
      "name": "floatBufferViews",
      "target": 34962
    },
    {
      "buffer": 0,
      "byteLength": 1634496,
      "byteOffset": 3498880,
      "byteStride": 12,
      "name": "floatBufferViews",
      "target": 34962
    },
    {
      "buffer": 0,
      "byteLength": 1089664,
      "byteOffset": 5133376,
      "byteStride": 16,
      "name": "floatBufferViews",
      "target": 34962
    }
  ],
  "buffers": [
    {
      "byteLength": 6223040,
      "uri": "scene.bin"
    }
  ],
  "extensionsUsed": [
    "KHR_materials_specular"
  ],
  "images": [
    {
      "uri": "textures/body_baseColor.png"
    },
    {
      "uri": "textures/body_metallicRoughness.png"
    },
    {
      "uri": "textures/body_normal.png"
    },
    {
      "uri": "textures/body_specularf0.png"
    },
    {
      "uri": "textures/glass_baseColor.png"
    }
  ],
  "materials": [
    {
      "doubleSided": true,
      "extensions": {
        "KHR_materials_specular": {
          "specularColorFactor": [
            1.0,
            1.0,
            1.0
          ],
          "specularFactor": 1.0,
          "specularTexture": {
            "index": 3
          }
        }
      },
      "name": "body",
      "normalTexture": {
        "index": 2
      },
      "pbrMetallicRoughness": {
        "baseColorTexture": {
          "index": 0
        },
        "metallicRoughnessTexture": {
          "index": 1
        },
        "roughnessFactor": 0.5
      }
    },
    {
      "alphaMode": "BLEND",
      "doubleSided": true,
      "extensions": {
        "KHR_materials_specular": {
          "specularColorFactor": [
            1.0,
            1.0,
            1.0
          ],
          "specularFactor": 1.0,
          "specularTexture": {
            "index": 3
          }
        }
      },
      "name": "glass",
      "normalTexture": {
        "index": 2
      },
      "pbrMetallicRoughness": {
        "baseColorTexture": {
          "index": 4
        },
        "metallicRoughnessTexture": {
          "index": 1
        },
        "roughnessFactor": 0.5
      }
    }
  ],
  "meshes": [
    {
      "name": "Object_0",
      "primitives": [
        {
          "attributes": {
            "NORMAL": 1,
            "POSITION": 0,
            "TANGENT": 2,
            "TEXCOORD_0": 3,
            "TEXCOORD_1": 4,
            "TEXCOORD_2": 5,
            "TEXCOORD_3": 6,
            "TEXCOORD_4": 7
          },
          "indices": 8,
          "material": 0,
          "mode": 4
        }
      ]
    },
    {
      "name": "Object_1",
      "primitives": [
        {
          "attributes": {
            "NORMAL": 10,
            "POSITION": 9,
            "TANGENT": 11,
            "TEXCOORD_0": 12,
            "TEXCOORD_1": 13,
            "TEXCOORD_2": 14,
            "TEXCOORD_3": 15,
            "TEXCOORD_4": 16
          },
          "indices": 17,
          "material": 0,
          "mode": 4
        }
      ]
    },
    {
      "name": "Object_2",
      "primitives": [
        {
          "attributes": {
            "NORMAL": 19,
            "POSITION": 18,
            "TANGENT": 20,
            "TEXCOORD_0": 21,
            "TEXCOORD_1": 22,
            "TEXCOORD_2": 23,
            "TEXCOORD_3": 24,
            "TEXCOORD_4": 25
          },
          "indices": 26,
          "material": 1,
          "mode": 4
        }
      ]
    }
  ],
  "nodes": [
    {
      "children": [
        1
      ],
      "matrix": [
        1.0,
        0.0,
        0.0,
        0.0,
        0.0,
        2.220446049250313e-16,
        -1.0,
        0.0,
        0.0,
        1.0,
        2.220446049250313e-16,
        0.0,
        0.0,
        0.0,
        0.0,
        1.0
      ],
      "name": "Sketchfab_model"
    },
    {
      "children": [
        2
      ],
      "name": "root"
    },
    {
      "children": [
        3,
        5
      ],
      "matrix": [
        1.0,
        0.0,
        0.0,
        0.0,
        0.0,
        2.220446049250313e-16,
        1.0,
        0.0,
        0.0,
        -1.0,
        2.220446049250313e-16,
        0.0,
        0.0,
        0.0,
        0.0,
        1.0
      ],
      "name": "GLTF_SceneRootNode"
    },
    {
      "children": [
        4
      ],
      "matrix": [
        0.009999999776482582,
        0.0,
        0.0,
        0.0,
        0.0,
        0.0,
        0.009999999776482582,
        0.0,
        0.0,
        -0.009999999776482582,
        0.0,
        0.0,
        0.00023293308913707733,
        0.011122878640890121,
        -0.012885667383670807,
        1.0
      ],
      "name": "open_0"
    },
    {
      "mesh": 0,
      "name": "Object_4"
    },
    {
      "children": [
        6,
        7
      ],
      "matrix": [
        0.009999999776482582,
        0.0,
        0.0,
        0.0,
        0.0,
        0.0,
        0.009999999776482582,
        0.0,
        0.0,
        -0.009999999776482582,
        0.0,
        0.0,
        0.0001517515629529953,
        0.05047189071774483,
        -0.011961962096393108,
        1.0
      ],
      "name": "C_17_BASE_MESH_1"
    },
    {
      "mesh": 1,
      "name": "Object_6"
    },
    {
      "mesh": 2,
      "name": "Object_7"
    }
  ],
  "samplers": [
    {
      "magFilter": 9729,
      "minFilter": 9987,
      "wrapS": 10497,
      "wrapT": 10497
    }
  ],
  "scene": 0,
  "scenes": [
    {
      "name": "Sketchfab_Scene",
      "nodes": [
        0
      ]
    }
  ],
  "textures": [
    {
      "sampler": 0,
      "source": 0
    },
    {
      "sampler": 0,
      "source": 1
    },
    {
      "sampler": 0,
      "source": 2
    },
    {
      "sampler": 0,
      "source": 3
    },
    {
      "sampler": 0,
      "source": 4
    }
  ]
}
